static_grf.mot
version=1
nRows=12
nColumns 19
inDegrees=yes
endheader
time	1_ground_force_vx	1_ground_force_vy	1_ground_force_vz	1_ground_force_px	1_ground_force_py	1_ground_force_pz	1_ground_torque_x	1_ground_torque_y	1_ground_torque_z	2_ground_force_vx	2_ground_force_vy	2_ground_force_vz	2_ground_force_px	2_ground_force_py	2_ground_force_pz	2_ground_torque_x	2_ground_torque_y	2_ground_torque_z
            0.005000	            1.610891	          330.110060	           -8.677216	           -0.238889	            0.006336	           -0.431952	            0.003851	            0.789131	           -0.020743	           -4.071678	          298.639276	           11.860489	           -0.236230	            0.005518	           -0.666073	            0.019380	           -1.421446	           -0.056453
            0.005500	            1.656671	          329.209103	           -8.772906	           -0.238608	            0.006339	           -0.432619	            0.004238	            0.842247	           -0.022445	           -4.071719	          298.639611	           11.766633	           -0.236365	            0.005517	           -0.665823	            0.018611	           -1.365056	           -0.053784
            0.006000	            2.024293	          329.387897	           -8.406196	           -0.238270	            0.006337	           -0.432187	            0.005482	            0.892030	           -0.022765	           -4.256501	          297.902645	           11.670228	           -0.236631	            0.005513	           -0.665154	            0.019194	           -1.343367	           -0.052626
            0.006500	            1.657225	          328.667550	           -8.591802	           -0.238557	            0.006340	           -0.432830	            0.004474	            0.887379	           -0.023197	           -4.210898	          298.270487	           11.859235	           -0.236373	            0.005517	           -0.665804	            0.018678	           -1.322983	           -0.052602
            0.007000	            1.794542	          329.208540	           -8.635680	           -0.238645	            0.006337	           -0.432087	            0.004717	            0.865349	           -0.022700	           -4.164110	          298.271158	           11.718430	           -0.236564	            0.005516	           -0.665804	            0.018600	           -1.332298	           -0.052343
            0.007500	            1.840091	          329.569473	           -8.725960	           -0.238634	            0.006337	           -0.432076	            0.004724	            0.846080	           -0.022402	           -4.162678	          297.901979	           11.951757	           -0.236505	            0.005516	           -0.665661	            0.018351	           -1.313316	           -0.052690
            0.008000	            1.473934	          328.847553	           -8.544718	           -0.238474	            0.006340	           -0.432787	            0.003495	            0.779689	           -0.020259	           -4.022190	          297.902989	           11.810913	           -0.236185	            0.005516	           -0.665472	            0.018372	           -1.360688	           -0.053947
            0.008500	            1.794362	          329.569268	           -8.679990	           -0.238580	            0.006337	           -0.432240	            0.004862	            0.892948	           -0.023518	           -4.210836	          298.269985	           12.000019	           -0.236114	            0.005517	           -0.665740	            0.019176	           -1.358333	           -0.054649
            0.009000	            1.748567	          329.929594	           -8.632474	           -0.238643	            0.006336	           -0.431928	            0.004395	            0.829189	           -0.021695	           -4.302624	          297.717833	           11.810375	           -0.236189	            0.005514	           -0.665049	            0.019372	           -1.340449	           -0.053175
            0.009500	            1.702921	          328.847991	           -8.636998	           -0.238492	            0.006337	           -0.432168	            0.004438	            0.856964	           -0.022508	           -3.933827	          299.376681	           11.769201	           -0.236669	            0.005516	           -0.666050	            0.018050	           -1.373642	           -0.054001
            0.010000	            1.565357	          330.289697	           -8.538762	           -0.238605	            0.006336	           -0.431952	            0.003904	            0.823673	           -0.021294	           -4.254487	          297.350055	           11.715185	           -0.236324	            0.005514	           -0.665031	            0.018901	           -1.321009	           -0.052046
            0.010500	            1.795063	          328.847222	           -8.453802	           -0.238709	            0.006338	           -0.432428	            0.004776	            0.874912	           -0.022492	           -4.352195	          298.454790	           11.672239	           -0.236247	            0.005518	           -0.665968	            0.019339	           -1.326172	           -0.051865
